P3
# a piet program loop.ppm
16 9
255
  0   0 255   0   0 192 192 192 255 192   0 192 255 255 255 
  0   0 255   0 255   0 192 192   0 192 192   0 192 192   0 
192 192   0 192 192   0 255 255 192 255 255 255 255 255 255 
255 255 255   0   0 255   0   0 192 255 255 255 255 255 255 
255 255 255 255 255 255 255 255 255 255 255 255 255 255 255 
255 255 255 255 255 255 255 255 255 255 192 255 255 255 255 
255 255 255 255 255 255   0   0 255 255 255 255 255 255 255 
255 255 255 255 255 255 255 255 255 255 255 255 255 255 255 
255 255 255 255 255 255 255 255 255 255 255 255 255 192 192 
255 255 255 255 255 255 255 255 255   0   0 255 255 255 255 
255 255 255 255 255 255 255 255 255 255 255 255 255 255 255 
255 255 255 255 255 255 255 255 255 255 255 255 255 255 255 
192   0 192 255 255 255 255 255 255 255 255 255   0   0 255 
255 255 255   0   0   0   0   0   0 255 255 255 255 255 255 
255 255 255 255 255 255 255 255 255 255 255 255 255 255 255 
255 255 255 255 255 255 255 255 255 255 255 255 255 255 255 
255 255 255 255 255 255   0   0 255   0   0 255 255 255 255 
255 255 255 255 255 255 255 255 255 255 255 255 255 255 255 
255 255 255 255 255 255 255 255 255 255 255 255 255 255 255 
255 255 255 255 255 255 255 255 255   0   0 255 255 255 255 
255 255 255 255   0 255 192 255 192 255 192 255   0 255 255 
192 255 255 255 192 255   0   0 192   0   0 255 255 255 255 
255 255 255 255 255 255 255 255 255 255 255 255 255 255 255 
255 255 255 255 255 255 255 255 255 255 255 255 255 255 255 
255 255 255 255 255 255 255 255 255 255 255 255 255 255 255 
255 255 255 255 255 255 255 255 255 255 255 255 255 255 255 
255 255 255 255 255 255 255 255 255 255 255 255 255 255 255 
255 255 255 255 255 255 255 255 255 255 255 255 255 255 255 
255 255 255 255 255 255 255 255 255 255 255 255 
